<?xml version="1.0" encoding="utf-8"?>
<!-- Generator: Adobe Illustrator 25.2.3, SVG Export Plug-In . SVG Version: 6.00 Build 0)  -->
<svg version="1.1" xmlns="http://www.w3.org/2000/svg" xmlns:xlink="http://www.w3.org/1999/xlink" x="0px" y="0px"
	 viewBox="0 0 64 64" enable-background="new 0 0 64 64" xml:space="preserve">
<g id="Layer_1">
</g>
<g id="Layer_2">
</g>
<g id="Layer_3">
</g>
<g id="Layer_4">
</g>
<g id="Layer_5">
</g>
<g id="Layer_6">
</g>
<g id="Layer_7">
</g>
<g id="Layer_8">
</g>
<g id="Layer_9">
</g>
<g id="Layer_10">
</g>
<g id="Layer_11">
</g>
<g id="Layer_12">
</g>
<g id="Layer_13">
</g>
<g id="Layer_14">
</g>
<g id="Layer_15">
</g>
<g id="Layer_16">
</g>
<g id="Layer_17">
</g>
<g id="Layer_18">
</g>
<g id="Layer_19">
</g>
<g id="Layer_20">
</g>
<g id="Layer_21">
</g>
<g id="Layer_22">
</g>
<g id="Layer_23">
</g>
<g id="Layer_24">
</g>
<g id="Layer_25">
</g>
<g id="Layer_26">
</g>
<g id="Layer_27">
</g>
<g id="Layer_28">
</g>
<g id="Layer_29">
</g>
<g id="Layer_30">
</g>
<g id="Layer_31">
	<path d="M43,8h-9.8c0.2-0.5,0.5-0.9,0.9-1.2l0.7-0.4C35.5,5.9,36,5,36,4c0-2.2-1.8-4-4-4s-4,1.8-4,4v1c0,0.6,0.4,1,1,1s1-0.4,1-1V4
		c0-1.1,0.9-2,2-2s2,0.9,2,2c0,0.3-0.1,0.6-0.4,0.7l-0.7,0.4c-1,0.7-1.6,1.7-1.9,2.8H21C11.6,8,4,15.6,4,25v36c0,1.7,1.3,3,3,3h50
		c1.7,0,3-1.3,3-3V25C60,15.6,52.4,8,43,8z M45,27.8l-1.8,9.1C43.1,37.6,43,38.3,43,39l0.2,4H39c-0.6,0-1,0.4-1,1v2c0,1.7,1.3,3,3,3
		h2.5l0.4,9c0,0.3-0.1,0.5-0.3,0.7c-0.2,0.2-0.4,0.3-0.7,0.3H36c-1.7,0-3-1.3-3-3V38.3l9.8-14.7c0.2-0.3,0.2-0.8,0-1.1l-1.4-2.1
		l3-1.5c0.3-0.1,0.5-0.4,0.5-0.7c0.1-0.3,0-0.6-0.2-0.8l-0.1-0.1l0.9,0.2c2.8,0.8,4.7,3.1,5,6L53.9,55h-4L47,27.9
		C46.9,27.4,46.5,27,46,27C45.5,27,45.1,27.3,45,27.8z M20.5,49H23c1.7,0,3-1.3,3-3v-2c0-0.6-0.4-1-1-1h-4.2l0.2-4
		c0-0.7,0-1.4-0.2-2.1L19,27.8c-0.1-0.5-0.5-0.8-1-0.8c0,0,0,0,0,0c-0.5,0-0.9,0.4-0.9,0.9L14.1,55h-4l3.3-31.5c0.3-2.9,2.3-5.2,5-6
		l0.9-0.2l-0.1,0.1C19,17.6,19,17.9,19,18.2c0.1,0.3,0.3,0.6,0.5,0.7l3,1.5l-1.4,2.1c-0.2,0.3-0.2,0.8,0,1.1L31,38.3V56
		c0,1.7-1.3,3-3,3h-6.9c-0.3,0-0.5-0.1-0.7-0.3c-0.2-0.2-0.3-0.5-0.3-0.7L20.5,49z M26.3,13h2.5l-2.1,1.4L26.3,13z M32,34.2L29.8,26
		h4.4L32,34.2z M34.7,24h-5.5l-2-7.5l4.8-3.3l4.8,3.3L34.7,24z M37.3,14.4L35.2,13h2.5L37.3,14.4z M58,61c0,0.6-0.4,1-1,1H7
		c-0.6,0-1-0.4-1-1V25c0-8.3,6.7-15,15-15h10v1h-6c0,0,0,0,0,0c-0.1,0-0.3,0-0.4,0.1c0,0,0,0-0.1,0c-0.1,0.1-0.2,0.1-0.3,0.2
		l-2.6,3.1l-3.7,1.1c-3.5,1-6.1,4-6.5,7.7L8,55.9c0,0.3,0.1,0.6,0.3,0.8S8.7,57,9,57h6c0.5,0,0.9-0.4,1-0.9l2.3-21.5l0.5,2.7
		c0.1,0.5,0.2,1.1,0.1,1.7l-0.2,4.7c0,0.1-0.1,0.2-0.1,0.3l-0.2,4c0,0.1,0,0.1,0,0.2l-0.4,9.7c0,0.8,0.3,1.6,0.8,2.2
		c0.6,0.6,1.3,0.9,2.2,0.9H28c1.6,0,3.1-0.8,4-2c0.9,1.2,2.4,2,4,2h6.9c0.8,0,1.6-0.3,2.2-0.9c0.6-0.6,0.9-1.4,0.8-2.2l-0.4-9.7
		c0-0.1,0-0.1,0-0.2l-0.2-4c0-0.1,0-0.2-0.1-0.3L45,38.9c0-0.6,0-1.1,0.1-1.7l0.5-2.7L48,56.1c0.1,0.5,0.5,0.9,1,0.9h6
		c0.3,0,0.6-0.1,0.7-0.3s0.3-0.5,0.3-0.8l-3.4-32.6c-0.4-3.7-2.9-6.7-6.5-7.7l-3.7-1.1l-2.6-3.1c-0.1-0.1-0.2-0.2-0.3-0.2
		c0,0,0,0-0.1,0C39.3,11,39.2,11,39,11c0,0,0,0,0,0h-6v-1h10c8.3,0,15,6.7,15,15V61z"/>
</g>
</svg>
